<?xml version="1.0" encoding="UTF-8" standalone="no"?>
<!-- Created with Inkscape (http://www.inkscape.org/) -->

<svg
   xmlns:dc="http://purl.org/dc/elements/1.1/"
   xmlns:cc="http://creativecommons.org/ns#"
   xmlns:rdf="http://www.w3.org/1999/02/22-rdf-syntax-ns#"
   xmlns:svg="http://www.w3.org/2000/svg"
   xmlns="http://www.w3.org/2000/svg"
   xmlns:sodipodi="http://sodipodi.sourceforge.net/DTD/sodipodi-0.dtd"
   xmlns:inkscape="http://www.inkscape.org/namespaces/inkscape"
   width="210mm"
   height="297mm"
   viewBox="0 0 210 297"
   version="1.1"
   id="svg8"
   inkscape:version="0.92.2 (5c3e80d, 2017-08-06)"
   sodipodi:docname="CoffeeLiquorBottles.svg">
  <defs
     id="defs2" />
  <sodipodi:namedview
     id="base"
     pagecolor="#ffffff"
     bordercolor="#666666"
     borderopacity="1.0"
     inkscape:pageopacity="0.0"
     inkscape:pageshadow="2"
     inkscape:zoom="2"
     inkscape:cx="307.65923"
     inkscape:cy="610.33446"
     inkscape:document-units="mm"
     inkscape:current-layer="layer1"
     showgrid="false"
     inkscape:window-width="3840"
     inkscape:window-height="2019"
     inkscape:window-x="-14"
     inkscape:window-y="-14"
     inkscape:window-maximized="1" />
  <metadata
     id="metadata5">
    <rdf:RDF>
      <cc:Work
         rdf:about="">
        <dc:format>image/svg+xml</dc:format>
        <dc:type
           rdf:resource="http://purl.org/dc/dcmitype/StillImage" />
        <dc:title></dc:title>
      </cc:Work>
    </rdf:RDF>
  </metadata>
  <g
     inkscape:label="Layer 1"
     inkscape:groupmode="layer"
     id="layer1">
    <path
       style="fill:#000000;stroke-width:1.72982311"
       d="M 395.12109 166.14453 C 389.53794 166.14453 387.58526 171.66852 390.60938 178.90625 C 398.29953 197.31152 387.92483 217.14442 365.16797 227.54297 C 357.56193 231.01846 350.76494 232.41515 335.32227 233.67383 C 295.38875 236.92867 268.08469 250.9787 255.9668 274.50977 C 251.37659 283.42323 250.69937 292.76567 253.75977 304.96875 C 258.47243 323.76002 263.37723 363.46003 265.12109 396.92773 C 267.6414 445.2982 264.05239 495.00778 254.86328 539.01172 C 250.6766 559.06049 250.31271 581.72965 253.94727 596.07617 C 258.91896 615.70065 269.64937 634.54135 284.03906 648.91406 C 298.93891 663.79625 308.81094 669.69549 327.39062 676.60938 C 331.31684 678.0704 335.85257 679.23479 340.77539 680.15625 C 341.49913 684.17082 347.50385 718.01709 350.36133 753.85352 C 351.87994 772.8989 352.43057 792.19931 350.79883 806.89062 C 349.98295 814.23629 348.59018 820.42436 346.74414 824.66016 C 344.8981 828.89595 342.87938 830.8266 340.86719 831.42188 L 340.83984 831.42969 L 340.8125 831.44141 C 325.80019 836.0883 293.18442 848.62353 270.3457 859.86328 C 264.63602 862.67325 259.54711 865.39619 255.44141 867.95508 C 251.33569 870.51393 248.24634 872.64331 246.13281 875.59766 C 245.07605 877.07481 244.00746 879.2587 244.70312 881.875 C 245.39882 884.4913 247.6001 885.98703 249.45117 886.69531 C 253.15331 888.11192 257.55104 888.16735 264.42578 887.76562 C 342.65498 883.19433 372.00482 883.61538 383.77148 883.44727 C 400.87211 883.9239 436.34548 883.8976 498.36133 887.52148 C 505.23606 887.92321 509.63381 887.86766 513.33594 886.45117 C 515.187 885.74285 517.38832 884.24716 518.08398 881.63086 C 518.77968 879.01456 517.7109 876.83071 516.6543 875.35352 C 514.54075 872.39917 511.45144 870.26983 507.3457 867.71094 C 503.24 865.15208 498.15106 862.42907 492.44141 859.61914 C 469.60267 848.37935 436.98689 835.84416 421.97461 831.19727 L 421.94922 831.18555 L 421.92188 831.17773 C 419.90965 830.58246 417.89099 828.65181 416.04492 824.41602 C 414.19889 820.18022 412.80612 813.99215 411.99023 806.64648 C 410.3585 791.9552 410.90908 772.65471 412.42773 753.60938 C 415.35967 716.83916 421.67936 681.72777 422.12305 679.28516 C 426.82814 678.4383 430.76964 677.49613 433.63086 676.51172 C 462.24653 666.6665 484.41436 647.5285 497.51562 621.35742 C 501.80456 612.78988 506.25761 601.56079 507.41211 596.40234 L 509.51172 587.02344 L 520.10547 585.05273 C 544.31792 580.54999 566.06198 563.45166 577.03516 540.28516 L 582.5957 528.54297 L 582.5957 484.43359 L 582.5957 440.32227 L 577.05859 428.63086 C 570.82698 415.47531 556.97964 399.80128 545.80078 393.25 C 534.96571 386.9002 518.89733 382.37305 507.19531 382.37305 C 500.142 382.37305 496.9707 381.70006 496.9707 380.20117 C 496.9707 373.33786 502.70543 330.17991 505.8418 313.43945 C 510.12842 290.5593 509.53362 281.05008 503.01367 268.18359 C 495.6764 253.70414 486.1184 244.74971 469.65039 236.92578 C 449.26812 227.24215 445.04393 223.56146 432.40039 204.47461 C 420.32276 186.24193 400.77651 166.14453 395.12109 166.14453 z M 406.875 193.82227 C 408.92366 193.82227 417.31713 204.59131 423.22461 214.79883 C 430.49268 227.35731 444.7941 239.66317 461.25391 247.52148 C 481.25275 257.06939 495.24023 272.67865 495.24023 285.44727 C 495.24023 288.94279 494.69312 288.96289 380.20703 288.96289 C 301.7333 288.96289 265.17383 288.3911 265.17383 287.16406 C 265.17383 282.6614 272.66682 271.45313 279.98242 265.01367 C 292.87663 253.66372 305.47339 249.88709 343.20898 246.05273 C 362.26957 244.11594 377.67397 237.16971 389.79102 225.05273 C 398.7203 216.12345 405.18392 204.69636 405.25195 197.71484 C 405.27285 195.5742 406.00355 193.82227 406.875 193.82227 z M 339.41797 302.19531 C 405.00145 302.18972 492.23554 302.67893 492.93945 303.38281 C 493.40895 303.85237 492.20097 314.22826 490.25391 326.43945 C 488.30681 338.65065 485.78988 358.95635 484.66211 371.5625 L 482.61133 394.48242 L 380.91797 394.48242 L 279.22461 394.48242 L 278.34766 387.13086 C 277.86548 383.08737 276.58094 370.43637 275.49219 359.01953 C 274.40336 347.6027 272.11486 330.47888 270.4082 320.96484 C 268.70148 311.45081 267.67065 303.27674 268.11719 302.80078 C 268.51157 302.38063 300.06788 302.19867 339.41797 302.19531 z M 496.10547 397.08008 L 510.83203 397.10547 C 523.3866 397.13038 527.00748 397.84377 535.37891 401.93945 C 547.88918 408.06025 561.17899 422.44341 566.45312 435.57031 C 570.21236 444.92665 570.44727 447.80049 570.44727 484.43359 C 570.44727 521.06663 570.21228 523.93855 566.45312 533.29492 C 561.34559 546.00729 547.85768 560.82297 536.2207 566.50391 L 536.2207 566.50781 C 531.28283 568.91843 523.54457 571.39262 519.02539 572.00781 L 510.80859 573.12695 L 510.79102 566.4043 C 510.78055 562.70724 510.31741 556.94443 509.76367 553.59766 C 508.77087 547.5986 508.86844 547.48347 516.60547 545.41406 C 525.96634 542.91047 535.68208 534.84055 540.34961 525.69141 C 543.33884 519.83246 543.76466 515.1182 543.96875 485.74023 C 544.09601 467.42132 543.58629 450.48786 542.83594 448.10938 C 542.08559 445.73088 539.25954 440.55293 536.55469 436.60352 C 529.93432 426.93707 519.78551 422.16211 505.86328 422.16211 L 495.08984 422.16211 L 495.59766 409.62109 L 496.10547 397.08008 z M 504.41992 435.00781 C 509.98786 434.88659 516.97175 436.44301 520.95117 439.28125 C 530.35105 445.98545 531.56785 451.2042 531.56445 484.81055 C 531.56151 517.38029 530.18746 523.30472 521.1875 529.58398 C 518.80897 531.24342 514.40451 533.09773 511.40039 533.70312 C 506.44781 534.70069 505.84455 534.34949 504.93164 529.94336 C 498.84399 500.56112 493.62427 440.38167 496.88086 437.125 C 498.24726 435.75862 501.07916 435.08055 504.41992 435.00781 z M 399.54883 483.73438 C 403.22357 483.68055 406.80765 483.88563 410.25781 484.36523 C 428.70281 486.9293 449.54297 497.88702 449.54297 505.02148 C 449.54297 508.76866 448.01208 509.99717 440.91016 511.95508 C 432.08738 514.38743 424.94381 517.13526 416.79492 521.23242 C 403.14123 528.09737 396.48673 533.19181 379.75 549.58789 C 361.88019 567.09402 354.66015 572.40007 339.83984 578.92188 C 332.08562 582.33422 314.7836 587.17263 310.29492 587.18359 C 308.8721 587.18673 307.12 586.53103 306.40039 585.72656 C 303.64602 582.64723 302.0253 574.6848 302.10352 564.62109 C 302.16826 556.28659 302.51533 553.98703 304.71484 547.3125 C 308.55462 535.66059 313.92632 527.16882 323.7168 517.2832 C 343.64948 497.15677 373.82561 484.11116 399.54883 483.73438 z M 457.5625 521.16406 C 460.90663 521.15272 462.41346 522.93173 464.29688 529.09766 C 465.43005 532.80753 465.81108 536.61407 465.75586 543.72461 C 465.69123 552.05911 465.34207 554.36062 463.14258 561.03516 C 459.3028 572.68706 453.93111 581.17688 444.14062 591.0625 C 424.784 610.60734 396.7415 623.28943 370.55469 624.3418 C 365.49785 624.54514 358.97226 624.34437 356.05273 623.89453 C 338.79122 621.23556 318.31445 610.07509 318.31445 603.32617 C 318.31445 599.57903 319.84533 598.35045 326.94727 596.39258 C 335.77005 593.96023 342.91362 591.21048 351.0625 587.11328 C 364.71618 580.24837 371.37071 575.15585 388.10742 558.75977 C 405.97725 541.2536 413.19729 535.94758 428.01758 529.42578 C 435.77181 526.01347 453.07386 521.17499 457.5625 521.16406 z M 410.37891 680.98242 L 412.36328 681.33594 C 411.23766 687.64552 405.9247 717.95352 403.14062 752.86914 C 401.59726 772.22512 400.97662 791.8851 402.73047 807.67578 C 403.60739 815.5711 405.04793 822.50332 407.50391 828.13867 C 409.95992 833.77399 413.71339 838.46534 419.27734 840.11133 C 433.40374 844.48889 466.21661 857.09466 488.32812 867.97656 C 493.86154 870.69975 498.73537 873.31887 502.41992 875.61523 C 503.92092 876.55074 505.06627 877.41781 506.12109 878.22852 C 504.26648 878.34039 501.90239 878.3933 498.90625 878.2168 C 436.57674 874.57458 400.58893 874.59738 383.90039 874.12891 L 383.79883 874.125 L 383.70117 874.12695 C 372.41291 874.28947 342.35433 873.87561 263.88477 878.46094 C 260.88864 878.63593 258.52453 878.58302 256.66992 878.47266 C 257.72474 877.66195 258.8701 876.79487 260.37109 875.85938 C 264.05563 873.56297 268.92949 870.94389 274.46289 868.2207 C 296.57444 857.3388 329.38724 844.73303 343.51367 840.35547 C 349.07762 838.70945 352.83111 834.01816 355.28711 828.38281 C 357.7431 822.7475 359.18362 815.81528 360.06055 807.91992 C 361.81441 792.12928 361.19377 772.46926 359.65039 753.11328 C 356.86851 718.22499 351.56577 687.96107 350.43359 681.61328 L 350.46484 681.60742 C 369.77493 683.84012 392.69477 683.07131 410.37891 680.98242 z M 380.20703 685.85547 L 407.01953 685.92188 L 380.20703 685.85547 z "
       transform="scale(0.26458333)"
       id="path826" />
  </g>
</svg>
